<?xml version="1.0" standalone="no"?>
<!DOCTYPE svg PUBLIC "-//W3C//DTD SVG 1.1//EN" "http://www.w3.org/Graphics/SVG/1.1/DTD/svg11.dtd" >
<!--
2013-9-30: Created.
-->
<svg>
<metadata>
Created by iconfont
</metadata>
<defs>

<font id="iconfont" horiz-adv-x="1024" >
  <font-face
    font-family="iconfont"
    font-weight="500"
    font-stretch="normal"
    units-per-em="1024"
    ascent="896"
    descent="-128"
  />
    <missing-glyph />
    
    <glyph glyph-name="shoujizhuce" unicode="&#58887;" d="M512 808.5184c280.871822 0 508.563911-227.646578 508.563911-508.5184 0-280.849067-227.692089-508.541156-508.563911-508.541156l0 188.575289 77.550933 0c38.7072 0 80.213333-7.827911 105.904356 23.825067 10.922667 13.425778 15.200711 27.648 15.200711 49.948444L710.656 507.371378c0 16.884622 1.752178 48.241778-2.002489 62.987378-4.391822 17.385244-15.314489 30.401422-26.350933 38.0928-16.019911 11.127467-30.833778 11.787378-53.566578 11.787378L512 620.238933 512 808.5184 512 808.5184 512 808.5184zM512 24.316444c1.251556 0 2.503111 0.091022 3.822933 0.318578 10.945422 1.820444 20.434489 12.720356 17.794844 26.259911-1.797689 9.193244-10.808889 17.590044-21.617778 17.385244L512 24.316444 512 24.316444 512 24.316444zM512 112.585244l154.532978 0L666.532978 553.974756 512 553.974756 512 112.585244 512 112.585244 512 112.585244zM512 576.002133l44.214044 0L556.145778 598.234311 512 598.234311 512 576.002133 512 576.002133zM512-208.541156c-280.871822 0-508.541156 227.692089-508.541156 508.541156 0 280.871822 227.669333 508.5184 508.541156 508.5184l0-188.279467-77.368889 0c-18.0224 0-47.490844 1.706667-63.988622-0.773689-20.616533-3.026489-31.880533-12.0832-41.915733-23.028622-10.695111-11.559822-15.382756-28.945067-15.382756-49.902933l0-453.563733c0-17.544533-1.774933-47.650133 2.389333-62.941867 4.869689-17.8176 15.496533-29.650489 26.510222-37.865244 15.314489-11.559822 30.72-12.128711 53.202489-12.128711L512-19.965867 512-208.541156 512-208.541156 512-208.541156zM512 598.234311l-44.214044 0 0.113778-22.232178L512 576.002133 512 598.234311 512 598.234311 512 598.234311zM512 553.974756l-154.555733 0 0-441.161956 3.458844-0.318578 151.096889 0.091022L512 553.974756 512 553.974756 512 553.974756zM512 68.257422c-1.046756 0-2.139022-0.091022-3.231289-0.318578-28.330667-5.074489-22.1184-44.100267 3.231289-43.645156L512 68.257422 512 68.257422zM512 68.257422"  horiz-adv-x="1024" />

    
    <glyph glyph-name="huodong" unicode="&#58933;" d="M480.544236 804.608001c-24.896 15.072-106.303999 57.631999-154.719998 84.607999-42.303999 23.52-55.135999-26.976-59.167999-61.567999-4.032-34.688-4.032-79.551999 40.319999-79.551999l162.815998 0c44.351999 0 44.351999 35.904 10.752 56.511999zM0.000242 628.960004l0-101.663999c-0.064-37.632 12.544-56.607999 62.783999-56.607999l371.231995 0 0 209.343997-372.191995 0c-50.847999 0.032-61.823999-16.736-61.823999-51.071999zM42.432241-4.927988c0.48-78.367999 46.207999-123.071998 143.871998-123.071998l245.279997 0 0 521.215993-389.151995 0c0 0-0.576-319.807996 0-398.143995zM1024.000229 624.640004c0 34.336-14.944 55.423999-65.759999 55.423999l-365.951995 0 0-209.343997 368.831995 0c50.239999 0 62.911999 17.376 62.879999 55.007999-0.16 34.272-0.096 64.607999 0 98.911999zM767.360232 828.384001c-4.032 34.592-16.864 85.087999-59.199999 61.567999-48.479999-26.976-129.823998-69.535999-154.719998-84.703999-33.664-20.512-33.664-56.415999 10.784-56.415999l162.783998 0c44.383999 0 44.383999 44.895999 40.351999 79.551999zM592.288234 393.216007l0-521.215993 237.791997 0c97.599999 0 141.567998 49.055999 142.111998 127.359998 0.576 78.367999-0.16 393.855995-0.16 393.855995l-379.743995 0z"  horiz-adv-x="1025" />

    
    <glyph glyph-name="hongbao" unicode="&#58966;" d="M563.2 294.4l-70.4-51.2L460.8 320 428.8 326.4l44.8-108.8L384 243.2l-6.4-32L467.2 192l-12.8-44.8-89.6 25.6-6.4-32L448 115.2l-25.6-102.4L448 0l25.6 102.4 89.6-25.6L576 115.2l-89.6 25.6 12.8 44.8 89.6-25.6 6.4 32-89.6 25.6 89.6 70.4L563.2 294.4zM512 896C230.4 896 0 672 0 396.8c0-121.6 44.8-236.8 121.6-326.4l140.8 512 12.8 51.2c6.4-19.2 19.2-44.8 32-64 51.2-76.8 134.4-140.8 230.4-166.4 102.4-25.6 198.4-12.8 288 32 19.2 12.8 44.8 25.6 64 38.4l-12.8-51.2-128-473.6c166.4 83.2 275.2 249.6 275.2 448C1024 672 793.6 896 512 896zM902.4 518.4c-19.2-12.8-38.4-25.6-64-38.4C755.2 435.2 652.8 422.4 550.4 448 454.4 473.6 371.2 531.2 320 614.4c-12.8 19.2-25.6 38.4-32 64l6.4 32C307.2 748.8 345.6 768 384 761.6l473.6-121.6c38.4-12.8 64-51.2 51.2-83.2L902.4 518.4z"  horiz-adv-x="1024" />

    
    <glyph glyph-name="fuzhi" unicode="&#58931;" d="M640-64 192-64C160-64 128-38.4 128 0L128 576C128 614.4 160 640 192 640L192 704C121.6 704 64 646.4 64 576L64 0C64-70.4 121.6-128 192-128L640-128C710.4-128 768-70.4 768 0L704 0C704-32 672-64 640-64ZM704 896 384 896C313.6 896 256 838.4 256 768L256 192C256 121.6 313.6 64 384 64L832 64C902.4 64 960 121.6 960 192L960 640 704 896ZM608 128 352 128C332.8 128 320 140.8 320 160 320 179.2 332.8 192 352 192L608 192C627.2 192 640 179.2 640 160 640 140.8 627.2 128 608 128ZM800 256 352 256C332.8 256 320 268.8 320 288 320 307.2 332.8 320 352 320L800 320C819.2 320 832 307.2 832 288 832 268.8 819.2 256 800 256ZM800 384 352 384C332.8 384 320 396.8 320 416 320 435.2 332.8 448 352 448L800 448C819.2 448 832 435.2 832 416 832 396.8 819.2 384 800 384ZM704 640 704 800 864 640 704 640Z"  horiz-adv-x="1024" />

    
    <glyph glyph-name="zhanghaozhuce" unicode="&#58934;" d="M512 896C228.8 896 0 667.2 0 384s228.8-512 512-512 512 228.8 512 512S795.2 896 512 896zM224 64c1.6 24 8 48 22.4 67.2 11.2 14.4 25.6 27.2 41.6 36.8 35.2 22.4 76.8 33.6 113.6 52.8 17.6 9.6 35.2 20.8 41.6 40 3.2 22.4 1.6 44.8 1.6 65.6-8 6.4-14.4 16-19.2 24-8 16-14.4 33.6-17.6 52.8-9.6 1.6-17.6 9.6-20.8 19.2-4.8 9.6-6.4 20.8-6.4 30.4 0 11.2 3.2 20.8 12.8 27.2-8 32-14.4 65.6-12.8 97.6 1.6 20.8 4.8 41.6 12.8 59.2 6.4 16 17.6 28.8 32 38.4 27.2 20.8 62.4 25.6 94.4 25.6 19.2 0 38.4-3.2 54.4-12.8 6.4-3.2 11.2-9.6 14.4-14.4 16-3.2 32-8 43.2-19.2 17.6-16 25.6-40 27.2-62.4 3.2-38.4-3.2-76.8-14.4-113.6 9.6-6.4 12.8-19.2 12.8-30.4-1.6-12.8-3.2-25.6-11.2-36.8-3.2-6.4-9.6-9.6-16-11.2-3.2-19.2-9.6-38.4-17.6-56-4.8-8-9.6-16-17.6-22.4 0-22.4-1.6-44.8 1.6-65.6 4.8-16 19.2-27.2 33.6-35.2 41.6-24 89.6-33.6 129.6-62.4 19.2-12.8 36.8-32 46.4-54.4 6.4-14.4 9.6-28.8 9.6-44.8C619.2 64 420.8 64 224 64z"  horiz-adv-x="1024" />

    
    <glyph glyph-name="time" unicode="&#59070;" d="M166.528-23.936c230.72-1.088 461.504-0.32 692.16-0.384 72.256-0.064 118.464 32.32 132.544 105.28 8.896 204.288 11.264 408.576-1.344 612.8-14.336 51.008-45.76 83.328-99.456 91.584-0.32-18.688-0.576-37.312-0.832-56 34.688-22.848 46.208-54.464 45.696-96.128-1.856-168.128-1.92-336.32-0.256-504.448 0.768-67.456-28.864-94.656-95.36-94.272-218.368 1.536-436.672 1.536-655.040 0-66.752-0.512-95.808 26.944-95.104 94.272 1.728 168.128 1.6 336.32-0.192 504.448-0.512 41.664 10.944 73.344 45.632 96.128 0.192 18.688 0.448 37.312 0.704 55.936-72.128-15.104-105.152-60.352-105.024-133.056 0.384-180.544-0.704-361.216 0.512-541.696 0.576-86.208 48.64-134.080 135.36-134.464zM444.992 729.088c22.528-1.024 46.080-4.416 67.456 0.64 39.424 9.28 111.424-29.248 111.808 31.168 0.448 53.248-71.424 14.080-102.464 27.52-28.672 0-51.2 0.64-73.728-0.128-21.888-0.896-50.816 3.392-52.416-28.16-1.664-32.448 27.136-30.144 49.344-31.040zM723.968 184.448c44.032 1.536 61.696 11.2 60.928 58.816-0.768 46.464-8.832 74.112-61.44 62.144-46.784 9.344-61.824-9.152-61.824-55.936-0.128-47.232 10.432-66.88 62.336-65.024zM509.632 187.264c49.152-10.432 65.28 9.6 64.32 59.776-0.832 44.16-10.88 61.44-58.56 61.056-47.296-0.32-67.2-10.624-64.768-62.528 1.984-43.008 9.088-68.8 59.008-58.304zM297.792 184.64c45.504 1.152 74.944 7.424 61.632 64.704 13.312 45.376-8.832 57.856-54.4 58.496-46.528 0.768-67.904-8.896-65.408-61.696 1.92-43.2 9.664-62.72 58.176-61.504zM723.968 395.392c44.032 1.536 61.632 11.2 60.928 58.816-0.768 46.4-8.832 74.112-61.44 62.080-46.784 9.344-61.76-9.152-61.824-55.936-0.128-47.168 10.432-66.88 62.336-64.96zM513.28 519.040c-51.648 2.304-62.528-17.152-62.72-64.64-0.192-47.36 16.32-58.176 60.8-58.88 49.984-0.832 70.528 14.848 59.968 64.192 10.368 49.536-14.656 57.472-58.048 59.328zM300.992 395.456c42.24 2.368 63.808 8.256 61.952 57.664-1.728 44.16-5.184 76.224-60.032 63.232-45.312 8.512-64.064-6.336-63.104-54.912 0.96-44.992 7.040-69.12 61.184-65.984zM693.76 724.544c1.6-21.952-11.968-54.784 28.032-56.384 40.576-1.664 29.12 30.912 31.168 53.44 1.216 12.224 0.256 24.704 0.256 37.056-0.064 12.288 0.896 24.768-0.256 36.992-1.984 22.656 8.256 54.528-32 53.056-34.56-1.28-26.304-29.568-27.456-50.048-1.28-24.704-1.664-49.536 0.256-74.112zM271.808 724.096c1.6-22.016-11.584-54.784 28.48-56 40.512-1.28 28.544 31.424 30.784 53.888 1.28 12.224 0.256 24.64 0.256 37.056 0 12.288 0.832 24.704-0.192 36.992-1.856 22.784 7.808 54.528-32.384 52.608-34.432-1.664-25.792-30.016-27.008-50.496-1.408-24.576-1.728-49.472 0.064-74.048zM166.784 730.496c22.912-3.072 45.504-4.096 45.248 28.224-0.192 31.68-21.376 32.64-45.184 27.776-10.368-0.384-20.8-0.832-31.168-1.216-0.256-18.624-0.512-37.248-0.704-55.936 10.624 0.384 21.184 0.768 31.808 1.152zM857.664 786.496c-23.872 4.864-45.056 3.84-45.056-27.968-0.064-31.936 21.504-32.512 45.12-28.096 10.688-0.32 21.248-0.768 31.872-1.152 0.256 18.688 0.512 37.312 0.832 56-10.944 0.448-21.888 0.832-32.768 1.216z"  horiz-adv-x="1024" />

    
    <glyph glyph-name="xitong" unicode="&#58881;" d="M423.844408 611.886206c-39.870006 0-72.156392-31.870406-72.156392-71.05778 0-39.25137 32.275719-71.05778 72.156392-71.05778 39.838008 0 72.124394 31.80641 72.124394 71.05778C495.968802 580.015799 463.693082 611.886206 423.844408 611.886206zM676.237121 271.348566l20.372314 20.062997c22.558872 22.185558 22.558872 58.183758 0 80.369315l-35.25157 34.686266c11.370098 19.433695 20.244321 40.307318 26.494675 62.439545l38.056764 0c31.870406 0 57.746446 25.438728 57.746446 56.807827l0 28.435911c0 31.369099-25.876039 56.871823-57.746446 56.871823l-37.619452 0c-5.941036 21.812242-14.495275 42.621869-25.556055 61.938236l33.875639 33.310334c22.558872 22.249555 22.558872 58.247755 0 80.369315l-20.372314 20.126994c-22.558872 22.185558-59.122377 22.185558-81.617252 0l-33.246338-32.681033c-20.276319 11.626086-42.216556 20.681633-65.40473 26.931986l0 38.184758C495.968802 870.561272 470.124761 896 438.254354 896l-28.841225 0c-31.870406 0-57.714447-25.438728-57.714447-56.807827l0-38.184758c-23.188174-6.250354-45.117744-15.316567-65.436728-26.931986l-33.182341 32.681033c-22.526874 22.185558-59.090378 22.185558-81.617252 0l-20.404313-20.126994c-22.526874-22.121561-22.526874-58.119761 0-80.369315l33.875639-33.310334c-11.028782-19.316367-19.593687-40.125994-25.534723-61.938236l-37.65145 0C89.834441 611.011582 64.022399 585.519524 64.022399 554.13976l0-28.435911c0-31.369099 25.812042-56.807827 57.714447-56.807827l38.088763 0c6.186358-22.121561 15.092578-42.995183 26.441345-62.439545l-35.219572-34.686266c-22.526874-22.185558-22.526874-58.183758 0-80.369315l20.404313-20.062997c22.526874-22.185558 59.090378-22.185558 81.617252 0l35.432895 34.878256c19.689683-10.996783 40.872623-19.625686 63.186174-25.556055l0-36.435511c0-31.369099 25.844041-56.807827 57.714447-56.807827l28.841225 0c31.870406 0 57.714447 25.438728 57.714447 56.807827l0 36.435511c22.34555 5.941036 43.496492 14.559272 63.154175 25.556055l35.496892-34.878256C617.114744 249.152342 653.678249 249.152342 676.237121 271.348566zM423.844408 382.777661c-87.654284 0-158.744063 70.001833-158.744063 156.237521 0 86.374348 71.089779 156.301518 158.744063 156.301518s158.712064-69.937836 158.712064-156.301518C582.556472 452.768829 511.498692 382.777661 423.844408 382.777661zM931.979001 77.480926l-18.249755 0c-2.879856 10.623469-6.996983 20.681633-12.372714 30.057164l16.372514 16.19119c10.996783 10.751462 10.996783 28.19059 0 38.995383l-9.876839 9.748846c-10.932786 10.751462-28.627902 10.751462-39.624686 0l-16.063197-15.871206c-9.812842 5.621052-20.500308 10.058164-31.689083 13.066014l0 18.495075c0 15.25257-12.564705 27.561289-27.9986 27.561289l-14.004633 0c-15.497892 0-27.9986-12.308718-27.9986-27.561289l0-18.495075c-11.25277-2.997183-21.876239-7.434295-31.753079-13.066014l-16.127194 15.871206c-10.879456 10.751462-28.627902 10.751462-39.560689 0l-9.940836-9.748846c-10.879456-10.815459-10.879456-28.243921 0-38.995383l16.436511-16.19119c-5.311734-9.375531-9.439528-19.433695-12.372714-30.057164L638.926987 77.480926c-15.433895 0-27.9986-12.308718-27.9986-27.561289l0-13.748646c0-15.25257 12.564705-27.561289 27.9986-27.561289l18.495075 0c2.997183-10.751462 7.316967-20.873623 12.810026-30.313151l-17.119144-16.809827c-10.879456-10.751462-10.879456-28.19059 0-38.995383l9.940836-9.684849c10.932786-10.815459 28.681233-10.815459 39.560689 0l17.247138 16.873823c9.503525-5.311734 19.753679-9.503525 30.622469-12.372714l0-17.684449c0-15.188574 12.500708-27.561289 27.9986-27.561289l14.004633 0c15.433895 0 27.9986 12.372714 27.9986 27.561289l0 17.684449c10.751462 2.879856 21.065614 7.06098 30.622469 12.372714l17.119144-16.873823c10.996783-10.815459 28.681233-10.815459 39.624686 0l9.876839 9.684849c10.996783 10.815459 10.996783 28.243921 0 38.995383l-17.065814 16.809827c5.503725 9.439528 9.812842 19.561689 12.810026 30.313151l18.495075 0c15.497892 0 27.9986 12.308718 27.9986 27.561289l0 13.748646C959.977601 65.161542 947.476893 77.480926 931.979001 77.480926zM785.490325-33.20154c-42.557872 0-76.998817 33.939636-76.998817 75.80421s34.440945 75.80421 76.998817 75.80421c42.493875 0 76.998817-33.939636 76.998817-75.80421S827.984201-33.20154 785.490325-33.20154zM785.490325 77.918237c-19.369699 0-34.995583-15.433895-34.995583-34.440945 0-19.06038 15.625886-34.440945 34.995583-34.440945 19.316367 0 34.995583 15.369899 34.995583 34.440945C820.485909 62.484343 804.796027 77.918237 785.490325 77.918237z"  horiz-adv-x="1024" />

    
    <glyph glyph-name="mima" unicode="&#58884;" d="M346.205976 469.74999 346.205976 650.673595c0 45.765323 37.230949 83.000366 82.996273 83.000366l165.594479 0c45.7643 0 82.995249-37.235043 82.995249-83.000366l0-180.923606 98.876961 0L776.668938 650.675642c0 100.446713-81.430614 181.873234-181.876304 181.873234L429.205319 832.548876c-100.44569 0-181.873234-81.427544-181.873234-181.873234l0-180.925652L346.205976 469.74999zM798.088784 469.924975 225.91224 469.924975c-60.063981 0-108.756983-48.690956-108.756983-108.754936 0-302.792211 176.847777-425.718915 388.748908-425.718915 194.377012 0 400.941602 103.266945 400.941602 425.718915C906.844743 421.234019 858.152764 469.924975 798.088784 469.924975zM552.968064 196.031954l0-84.949764-81.935104 0 0 84.949764c-21.937638 13.699-36.580127 37.987173-36.580127 65.754586 0 42.828434 34.718733 77.54819 77.549214 77.54819 42.826388 0 77.546144-34.718733 77.546144-77.54819C589.54819 234.019127 574.905702 209.730954 552.968064 196.031954z"  horiz-adv-x="1024" />

    
    <glyph glyph-name="h5youke" unicode="&#58890;" d="M512 896L33.870769 896l92.553846-922.308923L512-128l385.575385 101.691077L990.129231 896 512 896 512 896zM803.682462 589.036308L349.105231 589.036308l7.561846-107.047385 431.852308 0-30.326154-349.617231-250.052923-64.236308-242.412308 64.236308-15.163077 178.372923 121.225846 0 7.561846-85.622154 128.787692-35.682462 136.388923 35.682462 7.561846 142.690462L243.042462 367.81292299999996l-30.326154 335.36 598.528 0L803.682462 589.036308z"  horiz-adv-x="1024" />

    
    <glyph glyph-name="appyouke" unicode="&#59076;" d="M500.501604 480.486539v-85.845166h24.568001c33.281071 0 49.993026 14.426559 49.993026 43.422513 0 28.281769-16.42628 42.422653-49.421677 42.422653H500.501604z m330.668155 111.555866v239.966522c0 35.280792-28.71028 63.991073-63.991073 63.991073H255.392942c-35.280792 0-63.991073-28.567443-63.991073-63.991073v-239.966522H71.989957v-399.944204h119.411912v-255.964291c0-35.280792 28.71028-63.991073 63.991073-63.991073h511.928581c35.280792 0 63.991073 28.71028 63.991073 63.991073V192.09820100000002h118.126377v399.944204h-118.269214zM767.178686 816.011159v-223.968754H255.392942V816.011159h511.785744z m-132.410099-375.661877c0-27.281908-9.998605-49.136002-29.995815-65.562282s-44.993723-24.282327-74.989539-23.568141H500.501604v-92.84419h-56.706375V524.480402h91.558656c66.276468 0 99.414702-27.996094 99.414702-84.13112z m-410.514158-120.983122l-19.568699-60.991491H143.12289L240.537871 524.480402h66.70498l95.558098-266.105733h-61.848515l-19.99721 60.991491h-96.700795z m286.959966-415.227786c-17.711815 0-31.995536 14.283722-31.995536 31.995536s14.283722 31.995536 31.995536 31.995536 31.995536-14.283722 31.995537-31.995536c0-17.568978-14.283722-31.995536-31.995537-31.995536z m255.964291 95.986609H255.392942V192.09820100000002h511.785744v-191.973218z m61.420003 374.662017c-19.99721-16.42628-44.993723-24.282327-74.989538-23.568141h-29.138793v-92.84419h-56.706374V524.480402h91.558655c66.276468 0 99.271865-28.138932 99.271865-84.13112 0-27.281908-9.998605-49.136002-29.995815-65.562282z m-79.131818 105.699539h-25.13935v-85.845166h24.568001c33.281071 0 49.993026 14.426559 49.993026 43.422513 0.142837 28.281769-16.42628 42.422653-49.421677 42.422653z m-476.219277-1.856884h-1.57121c-0.714186-7.71321-2.285395-15.283582-4.57079-22.56828l-30.424327-92.987027H307.671363l-30.28149 92.272841c-1.999721 5.999163-3.428093 13.712373-4.142279 23.282466z"  horiz-adv-x="1024" />

    
    <glyph glyph-name="yunying" unicode="&#58886;" d="M929.207 543.222c-18.876 57.79-50.39 111.914-90.361 155.213-137.7 149.188-357.163 175.253-524.862 65.45L539.598 412.25l389.609 130.972z m-689.71 241.716c-19.875-13.377-38.33-28.233-55.42-44.585-43.951-42.071-77.07-93.374-99.525-151.298l381.815-154.6-226.87 350.483zM918.688 485.24L527.755 355.822 145.958 510.364C87.728 359.20000000000005 119.645 187.5 228.478 69.63499999999999c155.578-168.61 415.395-178.63 581.538-19.768C926.078 160.78200000000004 968.966 331.12 918.688 485.24z"  horiz-adv-x="1024" />

    
    <glyph glyph-name="caiwu" unicode="&#58921;" d="M824.151 608.604H199.95c-22.943 0-41.56 18.616-41.56 41.56s18.616 41.56 41.56 41.56h624.201c22.943 0 41.56-18.616 41.56-41.56s-18.617-41.56-41.56-41.56zM764.88 744.352H259.22c-22.943 0-41.56 18.616-41.56 41.56 0 22.943 18.616 41.56 41.56 41.56h505.66c22.943 0 41.56-18.616 41.56-41.56 0-22.943-18.616-41.56-41.56-41.56zM960 428.88c0 63.899-52.025 115.824-115.824 115.824H179.824C115.925 544.704 64 492.78 64 428.88v-372.528c0-63.899 51.925-115.824 115.824-115.824h664.352c63.899 0 115.824 51.924 115.824 115.824V428.88zM547.723 281.057l81.711 0.101c20.931 0 38.038-15.799 38.038-35.12 0-19.321-16.906-35.019-37.937-34.918l-81.811-0.101v-42.868l81.61 0.101c20.931 0 38.038-15.799 38.038-35.12 0-19.321-16.906-35.019-37.937-34.918l-81.711-0.101v-42.465c0-20.528-16.101-37.132-35.924-37.233-19.824 0-35.824 16.503-35.723 37.031v42.566l-81.509-0.101c-20.931 0-38.038 15.799-38.038 35.12 0 19.321 16.906 35.019 37.836 34.918l81.61 0.101v42.868l-81.409-0.101c-20.931 0-38.038 15.799-38.038 35.12s16.906 35.019 37.836 34.918l81.509 0.101v15.799L367.195 403.321c-14.893 14.491-14.893 38.038 0 52.528 14.893 14.491 39.044 14.491 54.038 0L512 366.89300000000003l90.868 88.956c14.893 14.491 39.044 14.491 53.937 0s14.893-38.038 0-52.528L547.623 296.352l0.1-15.295z"  horiz-adv-x="1024" />

    
    <glyph glyph-name="wangzhan" unicode="&#59182;" d="M441.6 253.866667h-256v362.666666H682.666667v-87.466666s70.4 4.266667 106.666666-8.533334v93.866667s-2.133333 113.066667-108.8 113.066667H192c0-2.133333-106.666667-10.666667-106.666667-119.466667v-347.733333s-6.4-115.2 104.533334-115.2 170.666667-2.133333 170.666666-2.133334 10.666667-34.133333-66.133333-51.2c-81.066667-14.933333-153.6-14.933333-164.266667-70.4h430.933334s-125.866667 91.733333-119.466667 232.533334zM725.333333 477.866667c-125.866667 0-228.266667-102.4-228.266666-228.266667S599.466667 21.33333300000004 725.333333 21.33333300000004c125.866667 0 228.266667 102.4 228.266667 228.266667S851.2 477.866667 725.333333 477.866667z m-36.266666-55.466667c10.666667 2.133333 23.466667 4.266667 34.133333 4.266667 12.8 0 25.6-2.133333 38.4-4.266667l-2.133333-2.133333c12.8-36.266667 21.333333-70.4 25.6-104.533334-44.8-6.4-85.333333-4.266667-117.333334 0 4.266667 34.133333 12.8 68.266667 25.6 104.533334l-4.266666 2.133333z m-138.666667-206.933333c-2.133333 10.666667-4.266667 21.333333-4.266667 34.133333 0 19.2 4.266667 38.4 10.666667 57.6 19.2-10.666667 40.533333-17.066667 59.733333-23.466667-2.133333-27.733333-2.133333-55.466667 2.133334-87.466666-42.666667 8.533333-68.266667 19.2-68.266667 19.2z m21.333333-51.2c19.2-6.4 38.4-12.8 55.466667-17.066667 4.266667-17.066667 8.533333-34.133333 14.933333-53.333333-29.866667 14.933333-55.466667 40.533333-70.4 70.4z m51.2 162.133333c-25.6 6.4-42.666667 14.933333-46.933333 17.066667 17.066667 27.733333 40.533333 49.066667 68.266667 64-8.533333-21.333333-17.066667-49.066667-21.333334-81.066667z m136.533334-249.6c-10.666667-2.133333-23.466667-4.266667-34.133334-4.266667s-21.333333 2.133333-32 2.133334c0 2.133333-10.666667 25.6-19.2 64 38.4-4.266667 72.533333-4.266667 104.533334 0-8.533333-34.133333-17.066667-55.466667-19.2-61.866667z m25.6 110.933333c-44.8-6.4-85.333333-4.266667-119.466667 0-2.133333 25.6-4.266667 53.333333-2.133333 83.2 46.933333-8.533333 89.6-6.4 125.866666 0 0-29.866667 0-57.6-4.266666-83.2zM874.666667 341.33333300000004c-14.933333-6.4-29.866667-10.666667-44.8-14.933333-6.4 32-12.8 57.6-19.2 76.8 25.6-14.933333 49.066667-36.266667 64-61.866667z m-64-245.333333c6.4 17.066667 10.666667 34.133333 14.933333 51.2 21.333333 4.266667 38.4 10.666667 53.333333 17.066667-14.933333-29.866667-38.4-53.333333-68.266666-68.266667z m87.466666 119.466667c-21.333333-8.533333-42.666667-14.933333-64-19.2 4.266667 32 4.266667 59.733333 2.133334 87.466666 32 10.666667 53.333333 21.333333 57.6 23.466667 6.4-17.066667 10.666667-36.266667 10.666666-57.6-2.133333-12.8-4.266667-23.466667-6.4-34.133333z"  horiz-adv-x="1024" />

    
    <glyph glyph-name="zhanghao" unicode="&#58981;" d="M501.461407 415.908519A242.973128 242.973128 0 0 1 746.190966 655.95426a245.315037 245.315037 0 0 1-490.044597 0 242.973128 242.973128 0 0 1 245.315038-240.045741zM391.391652 323.988565C192.329331 323.988565 43.618067 189.914237 43.618067-5.049743v-21.077187c0-101.87307 159.249857-101.87307 361.239566-101.87307h214.284734c193.793025 0 361.239565 0 361.239566 101.87307v21.077187c0 194.963979-148.711264 329.038308-347.773585 329.038308z"  horiz-adv-x="1024" />

    
    <glyph glyph-name="tongzhi" unicode="&#58957;" d="M512-128c57.5 0 104.6 47.1 104.6 104.6H407.4c0-57.5 47.1-104.6 104.6-104.6z m340 291.8V451.4c0 160.6-111.4 295-261.5 330.5V817.5C590.5 861 555.4 896 512 896s-78.4-35-78.4-78.5V782C283.4 746.4 172 612 172 451.4v-287.7L67.4 59.2v-52.3h889.1v52.3L852 163.8z"  horiz-adv-x="1024" />

    
    <glyph glyph-name="bangdingweixin1" unicode="&#58899;" d="M820.511801 584.3478259999999h38.161491C820.511801 762.434783 636.064596 896 426.176398 896S0.039752 730.63354 0.039752 520.7453419999999a362.534161 362.534161 0 0 1 171.726708-298.931677l-44.52174-133.565218 152.645963 76.322982a705.987578 705.987578 0 0 1 152.645963-25.440994h38.161491a337.093168 337.093168 0 0 0-12.720497 95.403726 356.173913 356.173913 0 0 0 362.534161 349.813665zM591.542857 705.192547a57.242236 57.242236 0 0 0 0-108.124224 57.242236 57.242236 0 1 0 0 108.124224zM292.61118 597.068323a57.242236 57.242236 0 1 0 0 108.124224 57.242236 57.242236 0 0 0 0-108.124224z m0 0M1214.847205 234.53416100000004c0 178.086957-171.726708 318.012422-362.534162 318.012423s-362.534161-146.285714-362.534161-318.012423 159.006211-318.012422 362.534161-318.012422a521.540373 521.540373 0 0 1 127.204969 25.440994l114.484472-63.602485-31.801242 108.124224a337.093168 337.093168 0 0 1 152.645963 254.409938z m-483.378882 57.242237a44.521739 44.521739 0 0 0 0 89.043478 44.521739 44.521739 0 1 0 0-89.043478z m235.329193 0a44.521739 44.521739 0 0 0 0 89.043478 44.521739 44.521739 0 1 0 0-89.043478z m0 0"  horiz-adv-x="1222" />

    
    <glyph glyph-name="youxi" unicode="&#59078;" d="M880.832 618.981l-251.335 80.007c-13.416 4.202-26.912 6.021-40.206 5.617l-8.565 34.144c-16.77 66.714-83.766 106.959-149.267 89.948l-255.174-66.511c-65.542-17.011-105.141-85.098-88.412-151.811l112.333-446.222c14.224-56.289 64.167-93.866 118.838-93.866 10.062 0 20.285 1.332 30.427 3.918l3.637 0.891c14.991-24.932 38.549-44.652 68.006-53.944l251.335-80.049a119.824 119.824 0 0 1 36.569-5.698c52.206 0 100.695 34.266 117.141 87.524l135.164 439.635c20.124 65.783-15.919 135.89-80.491 156.417z m-405.046-1.777L340.623 177.56799999999998c-1.414-4.405-2.465-8.809-3.354-13.214l-9.859-2.625c-18.103-4.688-36.649 6.424-41.297 24.851L173.779 632.8009999999999c-4.606 18.426 6.303 37.255 24.487 42.064l255.053 66.511c2.869 0.687 5.657 1.091 8.485 1.091 5.98 0 11.92-1.616 17.214-4.809 7.839-4.728 13.334-12.203 15.597-21.133l12.042-47.762c-13.819-13.94-24.648-31.356-30.871-51.559z m295.218-344.598c-28.607-89.746-117.949-80.25-131.162-2.908-9.375-34.145-5.617-69.22 6.707-83.118 0.404-0.526 3.354-6.102-5.01-5.416-6.91 0.484-50.591 10.627-61.42 24.529-1.374 1.816 1.293 3.918 3.151 3.798 21.496-1.092 40.893 40.972 49.177 64.408-56.652-60.288-134.275-12.524-106.717 78.311 15.678 51.682 65.057 56.975 100.331 68.208 34.186 10.991 62.552 31.841 69.381 42.428-0.889-12.203 12.485-47.438 32.164-75.805 21.498-30.911 59.724-62.956 43.398-114.435z"  horiz-adv-x="1024" />

    
    <glyph glyph-name="shebeiyouke" unicode="&#58969;" d="M259.072 209.40800000000002h506.368v161.792H259.072v-161.792z m391.68 114.688h67.072v-67.072h-67.072v67.072z m-116.736 0h67.072v-67.072h-67.072v67.072z m0 0M512 896C228.864 896 0 667.136 0 384s229.376-512 512-512c283.136 0 512 229.376 512 512C1024 667.136 795.136 896 512 896z m299.008-732.672H212.992V390.656l105.472 227.328h386.048l105.472-227.328v-227.328h1.024z m0 0"  horiz-adv-x="1024" />

    
    <glyph glyph-name="yanzhengma" unicode="&#58891;" d="M838.06 596.55c-0.72 22.63-19.45 44-41.61 47.88 0 0-85.91 13.58-134.11 30.74-60.19 21.42-119.75 68.49-119.75 68.49-18.58 13.27-47.07 12.44-64.3-1.9 0 0-42.16-42.54-120.83-67.38-72.68-29.21-130.77-32.2-130.77-32.2-21.92-2.85-40.79-23.09-41.22-45.72 0 0-3-116.31 0.77-218.39 1.41-182.61 217.59-363.15 326.84-363.15 107.54 0 293.37 125.78 322.6 360.49 7.22 139.35 2.38 221.13 2.38 221.13zM670.32 436.34L484.45 248.21a23.16 23.16 0 0 0-30.46-1.7l-97.06 77.13c-17.84 14.17-19.7 38.83-3.93 55.36s42.58 18.56 60.77 4.32L458.83 348l154.86 145.92c16.13 15.2 41.77 14.77 57.52-0.26-0.22 0.23-0.29 0.55-0.52 0.79l1.31-1.32c-0.23 0.23-0.55 0.3-0.79 0.53a41.18 41.18 0 0 0-0.88-57.31z m0 0"  horiz-adv-x="1024" />

    
    <glyph glyph-name="tuiguang" unicode="&#59046;" d="M608 544m-32 0a32 32 0 1 1 64 0 32 32 0 1 1-64 0ZM288 416m-32 0a32 32 0 1 1 64 0 32 32 0 1 1-64 0ZM512 832C264.976 832 64 631.024 64 384s200.976-448 448-448 448 200.976 448 448S759.024 832 512 832z m-128-416c0-8.896-1.312-17.456-3.584-25.632l171.888-120.32A95.392 95.392 0 0 0 608 288c52.944 0 96-43.056 96-96s-43.056-96-96-96-96 43.056-96 96c0 8.896 1.312 17.456 3.584 25.632l-171.904 120.32A95.312 95.312 0 0 0 288 320c-52.944 0-96 43.056-96 96s43.056 96 96 96c28.688 0 54.4-12.704 72.016-32.72l152.176 60.864c-0.048 1.28-0.192 2.544-0.192 3.856 0 52.944 43.056 96 96 96s96-43.056 96-96-43.056-96-96-96c-28.688 0-54.4 12.704-72.016 32.72l-152.176-60.864c0.048-1.28 0.192-2.544 0.192-3.856zM608 192m-32 0a32 32 0 1 1 64 0 32 32 0 1 1-64 0Z"  horiz-adv-x="1024" />

    
    <glyph glyph-name="quanpin" unicode="&#58932;" d="M541.976961 308.001088c0-11.377778 4.411791-22.198277 12.538776-30.32526l315.048345-315.025125H588.64907a44.512653 44.512653 0 0 1-44.535873-44.559093c0-24.613152 19.922721-44.535873 44.535873-44.535873h384.638549c1.277098-0.13932 2.554195-0.278639 3.691973-0.278639 5.410249 0 10.10068 1.555737 14.373152 2.972154 1.973696 0.719819 3.970612 1.439637 5.967528 2.414875 0.696599 0.278639 1.695057 0.557279 2.856055 0.859138a16.253968 16.253968 0 0 1 8.823582 4.411792 14.419592 14.419592 0 0 1 3.274014 6.710567c0.13932 0.417959 0.278639 1.137778 0.441179 1.416417 3.970612 5.549569 6.687347 11.958277 7.825125 19.063583v0.417959c0.1161 0.13932 0.1161 0.13932 0.1161 0.301859a9.589841 9.589841 0 0 1 0.441179 2.693515v0.16254a8.289524 8.289524 0 0 1 0.580499 3.250793V306.58467099999996c0 24.613152-20.062041 44.559093-44.675193 44.559093s-44.535873-19.945941-44.535873-44.559093v-285.605442L615.119819 338.303129c-8.126984 8.103764-18.924263 12.515556-30.325261 12.515556s-22.198277-4.411791-30.302041-12.515556a42.399637 42.399637 0 0 1-12.515556-30.302041zM0.510839 853.855782c-0.13932-0.696599-0.580499-1.857596-0.441179-3.274013v-388.493062a44.512653 44.512653 0 1 1 89.071746 0v285.605443l317.34712-317.347121c8.103764-8.103764 18.784943-12.515556 30.302041-12.515555a42.794376 42.794376 0 0 1 30.325261 73.142857L152.067483 806.045896h281.054331a44.512653 44.512653 0 1 1 0 89.071746H48.320726c-6.965986 0.859138-12.956735-1.137778-18.065125-2.856055a49.226304 49.226304 0 0 1-5.967528-2.391655 20.944399 20.944399 0 0 0-2.856055-0.835918 16.253968 16.253968 0 0 1-8.823583-4.411792 14.396372 14.396372 0 0 1-3.250793-6.687347C9.195102 877.493696 9.055782 876.773878 8.916463 876.495238a44.373333 44.373333 0 0 1-7.825125-19.063583v-0.441179c-0.13932-0.13932-0.13932-0.13932-0.13932-0.278639-0.16254-0.580499-0.441179-1.555737-0.441179-2.693515v-0.16254z m0 0"  horiz-adv-x="1024" />

    
    <glyph glyph-name="gonggao" unicode="&#58889;" d="M921.9 427.4H749.6c-9.4 0-18.4-3.8-25-10.5-6.6-6.7-10.3-15.7-10.3-25.1v-11.1c0-19.6 15.9-35.5 35.4-35.5h172.2c19.5 0 35.3 15.9 35.3 35.5v11.1c0 9.4-3.7 18.4-10.3 25.1-6.6 6.7-15.6 10.5-25 10.5zM522.4 732.1c-53.6-42.6-165.7-102.3-246.3-159.8h-0.1c-0.9-0.6-1.8-3.8-2.8-4.3-9.5-5.4-13.8-20.1-65.6-20.1h-101c-26 0-42-12.2-42-39.6V265c0-27.4 14.7-40.9 42-40.9H208c51.5-0.1 55.7-14.8 65.2-20.1 0.9-0.5 1.8-3.7 2.7-4.3h0.1c78.2-57.5 191-121.8 246.4-162.7 16.7-12.3 72.1-33.9 72.1 42.1v614c0 76.1-55.9 51.8-72.1 39z m159-167.8c9.2-16.1 27.3-20.2 40.5-9l141.5 119.3c13.3 11.1 16.5 33.2 7.4 49.4l-5.2 9.1c-9.1 16.1-27.3 20.1-40.5 9L683.6 622.8c-13.2-11.2-16.5-33.2-7.4-49.4l5.2-9.1z m40.4-347.4c-13.2 11.1-31.3 7-40.4-9l-5.2-9.1c-9.1-16.1-5.8-38.2 7.4-49.4L825.1 30c13.2-11.1 31.3-7.1 40.4 9l5.2 9.1c9.1 16.1 5.8 38.2-7.4 49.4L721.8 216.9z m0 0"  horiz-adv-x="1024" />

    
    <glyph glyph-name="shouye" unicode="&#59262;" d="M908.5 369.8l-30.8-36.7c-2.6-3-6.2-4.8-10.4-5.4h-1.5c-4.3 0-7.8 1.1-10.4 3.4L512 617.5 168.6 331.1c-4-2.6-7.9-3.8-11.9-3.4-4.3 0.6-7.8 2.5-10.4 5.4l-30.8 36.7c-2.6 3.3-3.8 7.2-3.4 11.7 0.3 4.5 2.2 8 5.4 10.6l356.8 297.2c10.5 8.7 23.1 12.9 37.7 12.9 14.5 0 27.1-4.3 37.7-12.9l121.1-101.2v96.8c0 4.6 1.5 8.5 4.5 11.4 3 3 6.8 4.5 11.4 4.5H782c4.6 0 8.5-1.5 11.4-4.5 3-3 4.5-6.8 4.5-11.4v-202.5l108.8-90.3c3.3-2.6 5.1-6.2 5.4-10.6 0.2-4.5-1-8.4-3.6-11.7z m-110.6-34.2v-238.2c0-8.6-3.1-16.1-9.4-22.3s-13.8-9.4-22.3-9.4H575.6V256.1H448.4v-190.5H258c-8.6 0-16.1 3.1-22.3 9.4-6.3 6.3-9.4 13.7-9.4 22.3V335.6c0 0.3 0.1 0.8 0.2 1.5 0.2 0.6 0.2 1.1 0.2 1.5L512 573.7l285.4-235.3c0.3-0.5 0.5-1.5 0.5-2.8z"  horiz-adv-x="1024" />

    
    <glyph glyph-name="huiyuan" unicode="&#58915;" d="M547.22208 184c-104 16-97.6 72-97.6 76.8v56s60.8 40 78.4 94.4c30.4 19.2 43.2 22.4 48 43.2 0 0 9.6 83.2-22.4 83.2 0 0-12.8-1.6-9.6 17.6 4.8 19.2 0 78.4-1.6 99.2-1.6 22.4 4.8 83.2-40 92.8-30.4 6.4-33.6-3.2-48-1.6-14.4 1.6-32 48-60.8 48l-57.6-11.2c-27.2 0-24-8-38.4-11.2-14.4-1.6 3.2 1.6-41.6-6.4-44.8-8-60.8-67.2-62.4-88-1.6-22.4-1.6-84.8 0-116.8 4.8-19.2-12.8-19.2-12.8-19.2-27.2 1.6-14.4-83.2-14.4-83.2 3.2-20.8-1.6-32 38.4-48 19.2-54.4 83.2-81.6 83.2-81.6s1.6-35.2 3.2-60.8c-4.8 1.6 9.6-64-113.6-83.2-123.2-19.2-132.8-59.2-155.2-81.6C-1.57792 80 0.02208-27.200000000000045 0.02208-27.200000000000045h739.2s-3.2 105.6-25.6 129.6c-22.4 22.4-43.2 64-166.4 81.6zM1024.02208-25.600000000000023s-3.2 75.2-20.8 92.8c-17.6 17.6-33.6 48-128 62.4-75.2 11.2-86.4 64-86.4 65.6 0 8 1.6 40 1.6 40s51.2 25.6 65.6 67.2c22.4 14.4 24 16 27.2 33.6 0 0 1.6 64-22.4 64 0 0-9.6-1.6-6.4 12.8 1.6 22.4 0 62.4-1.6 80-1.6 16 4.8 64-28.8 70.4-24 4.8-12.8-1.6-24 0s-25.6 33.6-46.4 33.6l-43.2-9.6c-20.8 0-17.6-6.4-28.8-8-11.2-1.6 8 1.6-25.6-4.8s-38.4-51.2-40-68.8c-1.6-16-1.6-65.6-1.6-89.6 3.2-14.4-16-14.4-16-14.4-20.8 1.6-16-64-16-64 3.2-16-1.6-24 28.8-36.8 14.4-41.6 56-62.4 56-62.4s-4.8-28.8-3.2-48c36.8-22.4 64-32 86.4-75.2 25.6-73.6 24-140.8 24-140.8H1024.02208z"  horiz-adv-x="1024" />

    
    <glyph glyph-name="guanbi" unicode="&#58930;" d="M512 384m-512 0a512 512 0 1 1 1024 0 512 512 0 1 1-1024 0ZM512 384m-398.222222 0a398.222222 398.222222 0 1 1 796.444444 0 398.222222 398.222222 0 1 1-796.444444 0ZM722.62163 585.140148c10.714074-10.733037 10.714074-29.50637 0-40.239407L360.580741 182.859852c-10.733037-10.714074-29.50637-10.714074-40.239408 0-10.714074 10.733037-10.714074 29.50637 0 40.239407l362.040889 362.040889c10.733037 10.714074 29.50637 10.714074 40.239408 0zM320.341333 585.140148c10.733037 10.714074 29.50637 10.714074 40.239408 0l362.040889-362.040889c10.714074-10.733037 10.714074-29.50637 0-40.239407-10.733037-10.714074-29.50637-10.714074-40.239408 0L320.341333 544.900741c-10.714074 10.733037-10.714074 29.50637 0 40.239407z"  horiz-adv-x="1024" />

    
    <glyph glyph-name="sousuo" unicode="&#58929;" d="M1014.321613-68.710065l-205.297401 206.093789a458.150532 458.150532 0 0 1-35.609912 636.029438 461.165428 461.165428 0 0 1-638.589256-11.888933 458.207416 458.207416 0 0 1-11.888932-636.88271 461.108543 461.108543 0 0 1 637.735983-35.496143l202.566929-206.093789a35.041064 35.041064 0 1 1 51.082589 48.238348zM71.398443 435.801614c0 215.081594 174.807125 389.43364 390.457568 389.43364 215.707327 0 390.514452-174.352046 390.514452-389.43364s-174.807125-389.43364-390.514452-389.43364c-215.536673 0.227539-390.230028 174.465816-390.457568 389.43364z"  horiz-adv-x="1024" />

    
    <glyph glyph-name="guanbi1" unicode="&#58964;" d="M553.223 424.919l216.8 216.842a28.344 28.344 0 0 1 0 39.936l-1.187 1.188a28.344 28.344 0 0 1-39.895 0L512.14 465.756 295.297 682.967a28.344 28.344 0 0 1-39.895 0l-1.228-1.188a27.853 27.853 0 0 1 0-39.895L471.057 424.92 254.215 208.036a28.344 28.344 0 0 1 0-39.895l1.187-1.229a28.344 28.344 0 0 1 39.895 0L512.14 383.795 728.94 166.953a28.344 28.344 0 0 1 39.895 0l1.229 1.188a28.344 28.344 0 0 1 0 39.895L553.182 424.96z"  horiz-adv-x="1024" />

    
    <glyph glyph-name="bangdingweixin0" unicode="&#58950;" d="M848.25 584.828a243.41 243.41 0 0 0 42.683-2.507C853.265 763.0360000000001 662.57 896 444.238 896 200.828 896 0.051 727.875 0.051 517.271A360.048 360.048 0 0 1 178.258 218.64l-45.191-135.984 155.586 77.793a831.36 831.36 0 0 1 155.585-22.57 243.512 243.512 0 0 1 42.684 2.507 376.733 376.733 0 0 0-12.539 92.84c-2.559 195.967 163.058 351.603 373.867 351.603zM609.855 705.3050000000001a55.223 55.223 0 1 0 0-110.445 56.297 56.297 0 1 0 0 110.445zM298.684 594.86a64.026 64.026 0 0 0-67.762 55.222 62.388 62.388 0 0 0 67.762 55.223 52.715 52.715 0 0 0 55.222-55.223 50.207 50.207 0 0 0-55.273-55.222zM1254.82 238.44500000000005c0 178.208-178.207 321.203-376.426 321.203-210.808 0-378.728-145.554-378.728-321.203 0-178.207 165.617-321.253 378.728-321.253a492.91 492.91 0 0 1 133.067 22.57l122.83-67.762-32.6 110.445c87.875 67.813 153.129 158.145 153.129 256z m-499.41 57.73a45.192 45.192 0 1 0 0 90.333 51.18 51.18 0 0 0 55.223-45.192 49.542 49.542 0 0 0-55.223-45.14z m243.41 0a45.192 45.192 0 1 0 0 90.333 51.18 51.18 0 0 0 55.222-45.192 49.542 49.542 0 0 0-55.222-45.14z"  horiz-adv-x="1254" />

    
    <glyph glyph-name="kongzhi" unicode="&#58943;" d="M225.5 654.308c-9.285 3.673-19.406 5.692-30 5.692-10.594 0-20.715-2.019-30-5.692V797c0 16.569 13.431 30 30 30 16.569 0 30-13.431 30-30v-142.692z m0-151.423V-29c0-16.569-13.431-30-30-30-16.569 0-30 13.431-30 30V502.885c9.285-3.673 19.406-5.692 30-5.692 10.594 0 20.715 2.019 30 5.692z m313.108-235.627C529.294 270.963 519.135 273 508.5 273c-10.552 0-20.637-2.006-29.892-5.656V797c0 16.569 13.432 30 30 30 16.569 0 30-13.431 30-30v-529.742z m0-151.516V-29c0-16.569-13.431-30-30-30-16.568 0-30 13.431-30 30V115.656c9.255-3.65 19.34-5.656 29.892-5.656 10.635 0 20.794 2.037 30.108 5.742z m321.5 425.322c-9.45 3.828-19.783 5.936-30.608 5.936-10.363 0-20.274-1.932-29.392-5.454V797c0 16.569 13.432 30 30 30 16.569 0 30-13.431 30-30v-255.936z m0-150.935V-29c0-16.569-13.431-30-30-30-16.568 0-30 13.431-30 30V389.648c9.118-3.523 19.03-5.455 29.392-5.455 10.825 0 21.158 2.108 30.608 5.936zM195.5 437.193c-78.132 0-141.5 63.293-141.5 141.404C54 656.707 117.368 720 195.5 720S337 656.707 337 578.597c0-78.111-63.368-141.404-141.5-141.404zM508.5 50C430.352 50 367 113.352 367 191.5S430.352 333 508.5 333 650 269.648 650 191.5 586.648 50 508.5 50z m321 274.193c-78.132 0-141.5 63.293-141.5 141.404C688 543.707 751.368 607 829.5 607S971 543.707 971 465.597c0-78.111-63.368-141.404-141.5-141.404z m-634 173c45.011 0 81.5 36.446 81.5 81.404C277 623.554 240.511 660 195.5 660S114 623.554 114 578.597c0-44.958 36.489-81.404 81.5-81.404zM508.5 110c45.011 0 81.5 36.489 81.5 81.5S553.511 273 508.5 273 427 236.511 427 191.5s36.489-81.5 81.5-81.5z m321 274.193c45.011 0 81.5 36.446 81.5 81.404C911 510.554 874.511 547 829.5 547S748 510.554 748 465.597c0-44.958 36.489-81.404 81.5-81.404z"  horiz-adv-x="1024" />

    


  </font>
</defs>
</svg>
